<svg class="animated" id="freepik_stories-charts" xmlns="http://www.w3.org/2000/svg" viewBox="0 0 500 500" version="1.1" xmlns:xlink="http://www.w3.org/1999/xlink" xmlns:svgjs="http://svgjs.com/svgjs"><style>svg#freepik_stories-charts:not(.animated) .animable {opacity: 0;}svg#freepik_stories-charts.animated #freepik--background-complete--inject-39 {animation: 1.5s Infinite  linear floating;animation-delay: 0s;}            @keyframes floating {                0% {                    opacity: 1;                    transform: translateY(0px);                }                50% {                    transform: translateY(-10px);                }                100% {                    opacity: 1;                    transform: translateY(0px);                }            }        </style><g id="freepik--background-complete--inject-39" class="animable animator-active" style="transform-origin: 264.23px 208.965px;"><path d="M300.4,279.49a2.81,2.81,0,0,1,.2.2l.57.59,2.2,2.33,8.3,8.89,29.41,31.71h-.34L374.1,285l.23-.26.19.29,2.43,3.66,25.24,38-.35-.06,24.26-19.38.14-.11.12.13,18.52,21,5,5.73,1.3,1.5c.29.34.43.52.43.52s-.17-.16-.47-.48L449.82,334l-5.1-5.66-18.64-20.85.26,0L402.14,327l-.2.16-.15-.22L376.52,289l-2.44-3.67.41,0c-12.14,13.9-23.56,26.95-33.4,38.21l-.17.19-.17-.19c-12.08-13.14-22.19-24.12-29.28-31.84l-8.2-9-2.15-2.38c-.23-.27-.41-.47-.55-.62S300.39,279.5,300.4,279.49Z" style="fill: rgb(230, 230, 230); transform-origin: 376.004px 307.755px;" id="elzi0wm9vk718" class="animable"></path><path d="M337.63,323.47A3.5,3.5,0,1,0,341.1,320,3.49,3.49,0,0,0,337.63,323.47Z" style="fill: rgb(224, 224, 224); transform-origin: 341.13px 323.5px;" id="elbmac6g8s83f" class="animable"></path><path d="M398.9,327.64a3.5,3.5,0,1,0,3.47-3.52A3.5,3.5,0,0,0,398.9,327.64Z" style="fill: rgb(224, 224, 224); transform-origin: 402.4px 327.62px;" id="elvhtz1kl76a" class="animable"></path><path d="M422.73,308.37a3.49,3.49,0,1,0,3.46-3.52A3.5,3.5,0,0,0,422.73,308.37Z" style="fill: rgb(224, 224, 224); transform-origin: 426.22px 308.34px;" id="ellz8cs2lwwve" class="animable"></path><path d="M370.8,285.47a3.5,3.5,0,1,0,3.47-3.52A3.5,3.5,0,0,0,370.8,285.47Z" style="fill: rgb(224, 224, 224); transform-origin: 374.3px 285.45px;" id="elbkqmdgmre5" class="animable"></path><path d="M448.85,336.12a3.5,3.5,0,1,0,3.47-3.52A3.5,3.5,0,0,0,448.85,336.12Z" style="fill: rgb(224, 224, 224); transform-origin: 452.35px 336.1px;" id="elgn1xzxqfimu" class="animable"></path><rect x="119.84" y="71.3" width="22.47" height="89.37" style="fill: rgb(230, 230, 230); transform-origin: 131.075px 115.985px;" id="elrgkk7bbhonn" class="animable"></rect><rect x="152.89" y="90.79" width="22.47" height="69.87" style="fill: rgb(230, 230, 230); transform-origin: 164.125px 125.725px;" id="elg5njkqzad5a" class="animable"></rect><rect x="186.45" y="106.75" width="22.47" height="53.91" style="fill: rgb(230, 230, 230); transform-origin: 197.685px 133.705px;" id="ellqo4vvfzd8b" class="animable"></rect><rect x="217.52" y="128.65" width="22.47" height="32.02" style="fill: rgb(230, 230, 230); transform-origin: 228.755px 144.66px;" id="elpbol3s5kjos" class="animable"></rect><path d="M222,49s-.21.27-.62.75l-1.87,2.15L212.4,60,186.76,89l-.14.15-.16-.12L169.73,76.21l.34,0-23.4,29.66-.28.36-.17.22-.21-.19L114.5,78.43l.35,0C102.48,94.67,92,108.54,84.5,118.35l-8.73,11.41-2.33,3-.61.77a2.85,2.85,0,0,1-.22.26,2.45,2.45,0,0,1,.19-.28l.58-.8,2.27-3.07,8.61-11.49,30.2-40.06.16-.21.19.17,31.55,27.76-.38,0,.28-.36,23.43-29.64.15-.19.19.15,16.7,12.81-.3,0L212.2,59.81c3.11-3.45,5.55-6.16,7.22-8l1.91-2.1C221.77,49.21,222,49,222,49Z" style="fill: rgb(230, 230, 230); transform-origin: 147.305px 91.395px;" id="elzmusy9xzx2m" class="animable"></path><path d="M218.29,69.73a1.39,1.39,0,0,1,.05-.45l.25-1.28c.26-1.19.61-2.77,1-4.7.89-4,2.15-9.46,3.6-15.58l.32.3-1.13.35c-6.27,1.93-11.95,3.64-16.07,4.86l-4.89,1.41-1.34.36a1.43,1.43,0,0,1-.48.09,2.49,2.49,0,0,1,.45-.19l1.31-.45,4.84-1.57c4.09-1.31,9.76-3.08,16-5l1.13-.34.44-.14-.11.45C222.27,54,221,59.44,220,63.39c-.49,1.91-.89,3.48-1.18,4.66-.14.49-.26.91-.35,1.25A1.59,1.59,0,0,1,218.29,69.73Z" style="fill: rgb(230, 230, 230); transform-origin: 211.685px 58.565px;" id="el2cx97ef1asf" class="animable"></path><path d="M395.55,200.11a22.58,22.58,0,1,1-22.21,22.95A22.61,22.61,0,0,1,395.55,200.11Zm.54,33.38a10.8,10.8,0,1,0-11-10.62A10.81,10.81,0,0,0,396.09,233.49Z" style="fill: rgb(224, 224, 224); transform-origin: 395.917px 222.687px;" id="el5k023tc0528" class="animable"></path><path d="M395.51,197.3a25.44,25.44,0,0,1,25.8,25l-15.4.4c-.1-6.69-4.63-9.41-10-9.75a9.58,9.58,0,0,0-10.15,9.75l-15.24.41A25.42,25.42,0,0,1,395.51,197.3Z" style="fill: rgb(240, 240, 240); transform-origin: 395.913px 210.204px;" id="ely6pubtwlu4" class="animable"></path><path d="M212.71,299.61a43,43,0,0,1,60.22-2A41.89,41.89,0,0,1,275,357.17a43,43,0,0,1-60.22,2A41.89,41.89,0,0,1,212.71,299.61Zm46,42.54a20,20,0,0,0-1-28.49,20.55,20.55,0,0,0-28.79,1,20,20,0,0,0,1,28.49A20.54,20.54,0,0,0,258.73,342.15Z" style="fill: rgb(245, 245, 245); transform-origin: 243.855px 328.39px;" id="elw5x8en5pvts" class="animable"></path><path d="M212.71,299.61a43,43,0,0,1,60.22-2l-15.18,16.08a20.55,20.55,0,0,0-28.79,1,20,20,0,0,0,1,28.49L214.76,359.2A41.89,41.89,0,0,1,212.71,299.61Z" style="fill: rgb(224, 224, 224); transform-origin: 237.093px 322.738px;" id="elh4h0791xuab" class="animable"></path><path d="M271.19,290.7c21,19.43,23.55,51,3.9,71.84l-21.33-18.39c9.39-9.95,11.43-23.24,1.38-32.53Z" style="fill: rgb(235, 235, 235); transform-origin: 271.12px 326.62px;" id="el1uhaw0ny1r2" class="animable"></path><path d="M251.54,345.47l12.67,25.06A36,36,0,0,0,278,361.44l-22.76-18.38Z" style="fill: rgb(224, 224, 224); transform-origin: 264.77px 356.795px;" id="elg8v7x7y9sxt" class="animable"></path><path d="M299.34,114.15A56.79,56.79,0,1,1,357,170,56.86,56.86,0,0,1,299.34,114.15Zm83.93-1.35a27.15,27.15,0,1,0-26.71,27.59A27.18,27.18,0,0,0,383.27,112.8Z" style="fill: rgb(250, 250, 250); transform-origin: 356.122px 113.216px;" id="el0sq431xg8o1" class="animable"></path><path d="M299.34,114.15a56.84,56.84,0,0,1,55.87-57.69l.48,29.63a27.15,27.15,0,1,0,.87,54.3L357,170A56.84,56.84,0,0,1,299.34,114.15Z" style="fill: rgb(224, 224, 224); transform-origin: 328.167px 113.233px;" id="elr3237npuca" class="animable"></path><path d="M350.11,51.9c36.63-.59,65.86,27.71,66.44,64.34l-34.67.56c-.28-17.52-13.67-28.55-31.18-28.26Z" style="fill: rgb(240, 240, 240); transform-origin: 383.33px 84.3455px;" id="elfqzqq0yoefl" class="animable"></path></g><g id="freepik--Floor--inject-39" class="animable" style="transform-origin: 250px 451.925px;"><path d="M417,451.93c0,.14-74.77.26-167,.26s-167-.12-167-.26,74.75-.27,167-.27S417,451.78,417,451.93Z" style="fill: rgb(38, 50, 56); transform-origin: 250px 451.925px;" id="el2u0rh1ri5xs" class="animable"></path></g><g id="freepik--Charts--inject-39" class="animable" style="transform-origin: 276.255px 221.113px;"><polygon points="185.47 313.27 370.77 311.94 370.77 314.54 185.47 316.2 185.47 313.27" style="fill: rgb(38, 50, 56); transform-origin: 278.12px 314.07px;" id="elhm1m7g2lc8t" class="animable"></polygon><polygon points="181.43 124.88 185.65 314.82 370.77 313.38 370.77 121.69 181.43 124.88" style="fill: rgb(255, 255, 255); transform-origin: 276.1px 218.255px;" id="el550gar62w8d" class="animable"></polygon><path d="M181.43,124.88l189.34-3.41H371v.23c0,54.87,0,119.62,0,188.7v3.25h-.26l-185.12,1.41h-.22v-.22c-2.39-113.84-3.95-188-4-189.95,0,1.92,1.78,76.11,4.44,189.93l-.22-.22,185.12-1.47-.26.26v-3c0-69.08,0-133.83,0-188.7l.23.23Z" style="fill: rgb(38, 50, 56); transform-origin: 276.2px 218.265px;" id="eloc0c2u90s8" class="animable"></path><polygon points="180.69 126.15 371.58 125.06 371.82 117.05 180.69 118.24 180.69 126.15" style="fill: rgb(38, 50, 56); transform-origin: 276.255px 121.6px;" id="el3a4n72tncak" class="animable"></polygon><path d="M272.07,320c-.32,0-.66-1.49-.75-3.35s.11-3.38.43-3.4.66,1.48.75,3.34S272.4,320,272.07,320Z" style="fill: rgb(38, 50, 56); transform-origin: 271.91px 316.625px;" id="elouvfgwnq6dr" class="animable"></path><path d="M272,318.63c0-.07.32-.09.82.11a3.54,3.54,0,0,1,.84.5,3.49,3.49,0,0,1,.85,1,3.41,3.41,0,0,1-.08,3.46,3.27,3.27,0,0,1-.72.82,3,3,0,0,1-1,.53,3.48,3.48,0,0,1-2.33-.17,3.41,3.41,0,0,1-1-.68,3,3,0,0,1-.67-1,3.57,3.57,0,0,1-.17-2.15,3.26,3.26,0,0,1,2.38-2.5,3.28,3.28,0,0,1,2.27.2c.48.24.66.49.62.55s-.31,0-.77-.12a3.52,3.52,0,0,0-1.87.16,2.57,2.57,0,0,0-1,.7,2.58,2.58,0,0,0-.41,2.69,2.07,2.07,0,0,0,1.09,1.05,2.33,2.33,0,0,0,1.53.13,1.94,1.94,0,0,0,1.14-.82,2.64,2.64,0,0,0,.45-1.29,2.19,2.19,0,0,0,0-.63,2.38,2.38,0,0,0-.17-.57,3.76,3.76,0,0,0-1.17-1.49C272.26,318.85,272,318.71,272,318.63Z" style="fill: rgb(38, 50, 56); transform-origin: 271.695px 321.805px;" id="elyj6oa8yx2z" class="animable"></path><path d="M299.54,228.82s0,0-.12,0l-.34,0-1.32.06-5.09.22-18.72.7c-15.81.58-37.66,1.35-61.78,2.18l-8.3.28h-.19v-.19C202,210,200.48,190.22,199.43,176c-.52-7.1-.93-12.81-1.22-16.74-.13-2-.24-3.49-.31-4.52,0-.52-.06-.91-.07-1.18s0-.23,0-.3,0-.1,0-.1a.36.36,0,0,1,0,.1c0,.07,0,.17,0,.3s.06.66.11,1.17c.08,1,.21,2.55.38,4.52.31,3.93.77,9.64,1.34,16.72,1.12,14.18,2.66,33.91,4.36,56.07l-.2-.18,8.3-.29c24.12-.82,46-1.55,61.78-2.05l18.73-.58,5.09-.14,1.32,0h.46Z" style="fill: rgb(69, 90, 100); transform-origin: 248.683px 192.71px;" id="elj9oorljok3a" class="animable"></path><polygon points="232.51 147.01 232.51 149.56 258.89 148.3 258.89 146.16 232.51 147.01" style="fill: rgb(38, 50, 56); transform-origin: 245.7px 147.86px;" id="elqlqyx4ynr" class="animable"></polygon><polygon points="212.54 226.64 221.71 226.64 220.27 201.75 211.28 201.75 212.54 226.64" style="fill: #FFD700; transform-origin: 216.495px 214.195px;" id="el933k0qwf81" class="animable"></polygon><polygon points="229.16 226.65 238.32 226.65 236.89 191.86 227.9 191.86 229.16 226.65" style="fill: #FFD700; transform-origin: 233.11px 209.255px;" id="elasouhxl55v" class="animable"></polygon><polygon points="244.72 225.54 253.89 225.54 252.45 179.99 243.47 179.99 244.72 225.54" style="fill: #FFD700; transform-origin: 248.68px 202.765px;" id="elnqke2m240ki" class="animable"></polygon><polygon points="280.42 223.77 289.58 223.77 288.15 161.69 279.16 161.69 280.42 223.77" style="fill: #FFD700; transform-origin: 284.37px 192.73px;" id="elhi45krfpxsc" class="animable"></polygon><polygon points="263.05 223.98 272.21 223.98 270.77 170.56 261.79 170.56 263.05 223.98" style="fill: #FFD700; transform-origin: 267px 197.27px;" id="elibyb51fa3f" class="animable"></polygon><path d="M206.78,195.3c-.24-.37,16.14-11.29,36.57-24.39s37.21-23.42,37.45-23-16.14,11.29-36.58,24.39S207,195.67,206.78,195.3Z" style="fill: #FFD700; transform-origin: 243.79px 171.604px;" id="elhkl5knbkm8c" class="animable"></path><path d="M271.73,147.87c-.08-.44,5.85-1.92,13.27-3.32l1.88-.35-1.07,1.59-.06.09c-4.24,6.3-8,11.21-8.35,11s2.78-5.55,7-11.86l.06-.09.82,1.24C277.87,147.52,271.81,148.3,271.73,147.87Z" style="fill: #FFD700; transform-origin: 279.305px 150.543px;" id="eldpu5s490ysf" class="animable"></path><polygon points="211.28 235.05 220.86 235.05 221.16 236.75 211.28 236.75 211.28 235.05" style="fill: rgb(38, 50, 56); transform-origin: 216.22px 235.9px;" id="elw38v1tz1p1" class="animable"></polygon><polygon points="228.24 234.35 237.82 234.35 238.12 236.05 228.24 236.05 228.24 234.35" style="fill: rgb(38, 50, 56); transform-origin: 233.18px 235.2px;" id="eletdzgck2ks7" class="animable"></polygon><polygon points="245.7 233.85 255.28 233.85 255.58 235.55 245.7 235.55 245.7 233.85" style="fill: rgb(38, 50, 56); transform-origin: 250.64px 234.7px;" id="el3hb4onn9tl6" class="animable"></polygon><polygon points="262.06 233.44 271.64 233.44 271.94 235.15 262.06 235.15 262.06 233.44" style="fill: rgb(38, 50, 56); transform-origin: 267px 234.295px;" id="elx3yw98dm7n" class="animable"></polygon><polygon points="282.33 232.84 291.91 232.84 292.21 234.55 282.33 234.55 282.33 232.84" style="fill: rgb(38, 50, 56); transform-origin: 287.27px 233.695px;" id="elv0jm4ee7q4t" class="animable"></polygon><circle cx="325.3" cy="270.04" r="30.58" style="fill: #FFD700; transform-origin: 325.3px 270.04px;" id="el114xbl9xjveg" class="animable"></circle><g id="el7nxwqjwgl1d"><circle cx="325.3" cy="270.04" r="30.58" style="opacity: 0.3; transform-origin: 325.3px 270.04px;" class="animable" id="el9kxiamhh3o"></circle></g><path d="M325.3,270l-29.83,6.71h0c-4.8-22,12.94-37.29,29.83-37.29h0" style="fill: #FFD700; transform-origin: 309.986px 258.065px;" id="elo7nlui73io" class="animable"></path><path d="M325.34,270l-.2-30.58h0c22.52,0,33.68,20.59,30.08,37.09h0Z" style="fill: #FFD700; transform-origin: 340.512px 257.965px;" id="el8n0mjy0zi7h" class="animable"></path><path d="M325.34,270l-.2-30.58h0c22.52,0,33.68,20.59,30.08,37.09h0Z" style="fill: #FFD700; transform-origin: 340.512px 257.965px;" id="el3hpe1ylu5hs" class="animable"></path><g id="elgh3rtk49b4q"><path d="M325.34,270l-.2-30.58h0c22.52,0,33.68,20.59,30.08,37.09h0Z" style="opacity: 0.1; transform-origin: 340.512px 257.965px;" class="animable" id="elki7sw5p52y"></path></g><path d="M356.67,197.63a10.43,10.43,0,0,0-1.89-1,8.83,8.83,0,0,0-5.64.16c-2.34.73-4.66,2.59-6.91,4.92s-4.66,5.15-8.18,6.8a9.51,9.51,0,0,1-5.49.91,18.72,18.72,0,0,1-4.87-1.74,16.11,16.11,0,0,0-4.29-1.51,7,7,0,0,0-3.84.48,8.2,8.2,0,0,0-4.11,3.84,13.73,13.73,0,0,0-.69,2,5.52,5.52,0,0,1,.51-2.09,8.25,8.25,0,0,1,4.14-4.09,7.38,7.38,0,0,1,4-.57,16.52,16.52,0,0,1,4.44,1.5,18.28,18.28,0,0,0,4.74,1.68,9.15,9.15,0,0,0,5.19-.88c3.38-1.58,5.75-4.38,8.06-6.67s4.7-4.22,7.13-4.93a8.85,8.85,0,0,1,5.83,0,5.88,5.88,0,0,1,1.41.78A2.5,2.5,0,0,1,356.67,197.63Z" style="fill: rgb(38, 50, 56); transform-origin: 333.715px 204.218px;" id="el3hikd0g0z3z" class="animable"></path><path d="M359.26,217.39c0,.15-10.86.26-24.25.26s-24.25-.11-24.25-.26,10.86-.26,24.25-.26S359.26,217.25,359.26,217.39Z" style="fill: rgb(38, 50, 56); transform-origin: 335.01px 217.39px;" id="elfoq9he3l5p" class="animable"></path><path d="M356.56,217.39c-.14,0-.26-6.18-.26-13.81s.12-13.8.26-13.8.26,6.18.26,13.8S356.71,217.39,356.56,217.39Z" style="fill: rgb(38, 50, 56); transform-origin: 356.56px 203.585px;" id="ell4fxxqeskvs" class="animable"></path><path d="M315.65,205.76s-.07-.1,0-.28a.92.92,0,0,1,.55-.55,1.14,1.14,0,0,1,1.17.15,1.17,1.17,0,0,1-1.32,1.86,1.13,1.13,0,0,1-.55-1,1,1,0,0,1,.29-.72c.15-.12.26-.12.27-.1s-.27.29-.2.8a.85.85,0,0,0,.41.64.72.72,0,0,0,.78-1.09.8.8,0,0,0-.73-.15C315.81,205.4,315.72,205.78,315.65,205.76Z" style="fill: rgb(38, 50, 56); transform-origin: 316.583px 205.931px;" id="elfzzh8odpvet" class="animable"></path><path d="M348.35,195.73s0-.12.18-.22a1,1,0,0,1,.75-.06,1.12,1.12,0,0,1,.8.84,1.15,1.15,0,0,1-2.14.65,1.14,1.14,0,0,1,.21-1.15,1,1,0,0,1,.67-.35c.18,0,.27.06.26.09s-.38.05-.63.48a.82.82,0,0,0-.08.73.7.7,0,0,0,1.24-.38.81.81,0,0,0-.46-.57C348.71,195.57,348.4,195.8,348.35,195.73Z" style="fill: rgb(38, 50, 56); transform-origin: 348.975px 196.456px;" id="elrgo7ssbdb7" class="animable"></path><path d="M355.7,163c0,.14-10.52.26-23.49.26s-23.49-.12-23.49-.26,10.51-.26,23.49-.26S355.7,162.88,355.7,163Z" style="fill: rgb(38, 50, 56); transform-origin: 332.21px 163px;" id="elbds25vi2e9q" class="animable"></path><path d="M355.7,169.55c0,.15-10.52.26-23.49.26s-23.49-.11-23.49-.26,10.51-.26,23.49-.26S355.7,169.41,355.7,169.55Z" style="fill: rgb(38, 50, 56); transform-origin: 332.21px 169.55px;" id="elm8pun5a3ty" class="animable"></path><path d="M355.7,176.08c0,.14-10.52.26-23.49.26s-23.49-.12-23.49-.26,10.51-.26,23.49-.26S355.7,175.93,355.7,176.08Z" style="fill: rgb(38, 50, 56); transform-origin: 332.21px 176.08px;" id="elrgduczcibqs" class="animable"></path><path d="M355.7,182.6c0,.15-10.52.26-23.49.26s-23.49-.11-23.49-.26,10.51-.26,23.49-.26S355.7,182.46,355.7,182.6Z" style="fill: rgb(38, 50, 56); transform-origin: 332.21px 182.6px;" id="eljwvfu4sme3c" class="animable"></path><rect x="308.72" y="151.09" width="25" height="2.11" style="fill: rgb(38, 50, 56); transform-origin: 321.22px 152.145px;" id="elslvc3fmf3ed" class="animable"></rect><rect x="205.52" y="255.85" width="25" height="2.11" style="fill: rgb(38, 50, 56); transform-origin: 218.02px 256.905px;" id="elnr7f9jqthro" class="animable"></rect><path d="M273.93,268.08c0,.15-15.17.26-33.88.26s-33.89-.11-33.89-.26,15.17-.26,33.89-.26S273.93,267.94,273.93,268.08Z" style="fill: rgb(38, 50, 56); transform-origin: 240.045px 268.08px;" id="el7n74j54jog" class="animable"></path><path d="M274.33,274c0,.14-15.44.26-34.48.26s-34.48-.12-34.48-.26,15.43-.26,34.48-.26S274.33,273.88,274.33,274Z" style="fill: rgb(38, 50, 56); transform-origin: 239.85px 274px;" id="elx3zt9izwg" class="animable"></path><path d="M275.12,279.58c0,.14-15.53.26-34.68.26s-34.68-.12-34.68-.26,15.53-.26,34.68-.26S275.12,279.43,275.12,279.58Z" style="fill: rgb(38, 50, 56); transform-origin: 240.44px 279.58px;" id="el3f2k9148zb6" class="animable"></path><path d="M241.83,285.52c0,.14-8,.26-17.84.26s-17.83-.12-17.83-.26,8-.26,17.83-.26S241.83,285.38,241.83,285.52Z" style="fill: rgb(38, 50, 56); transform-origin: 223.995px 285.52px;" id="el6vp60s8qcmn" class="animable"></path></g><g id="freepik--Character--inject-39" class="animable" style="transform-origin: 161.158px 290.669px;"><path d="M132.93,447.4v-9L116,438.25l-.14,13.23,1,.07c4.67.29,23.76,1.14,26.89.22C147.29,450.73,132.93,447.4,132.93,447.4Z" style="fill: #FFD700; transform-origin: 130.086px 445.218px;" id="elxvvahigaec" class="animable"></path><path d="M144.2,450.94c0,.16-6.33.29-14.14.29s-14.15-.13-14.15-.29,6.34-.29,14.15-.29S144.2,450.78,144.2,450.94Z" style="fill: rgb(38, 50, 56); transform-origin: 130.055px 450.94px;" id="elsxmzeinztmp" class="animable"></path><path d="M133.23,449.25c-.14-.08,0-.57.34-1s.81-.71.91-.6-.12.52-.45,1S133.37,449.33,133.23,449.25Z" style="fill: rgb(38, 50, 56); transform-origin: 133.84px 448.447px;" id="elqflivsd1pda" class="animable"></path><path d="M134.31,449.84c-.15-.06-.07-.6.26-1.16s.77-.9.89-.8-.08.57-.39,1.09S134.46,449.9,134.31,449.84Z" style="fill: rgb(38, 50, 56); transform-origin: 134.866px 448.854px;" id="el39m0zq5thns" class="animable"></path><path d="M121,450.88c-.07.05-.33-.19-.7-.59a10.92,10.92,0,0,0-1.49-1.43,4.08,4.08,0,0,0-1.83-.75c-.51-.07-.84,0-.87-.08s.29-.29.88-.33a3.42,3.42,0,0,1,2.16.69,6,6,0,0,1,1.48,1.65C120.94,450.51,121.08,450.83,121,450.88Z" style="fill: rgb(38, 50, 56); transform-origin: 118.565px 449.293px;" id="elcymovhzy13q" class="animable"></path><path d="M133.28,447.55c.08.13-.22.45-.7.62s-.91.11-.93-.05.31-.34.74-.49S133.19,447.41,133.28,447.55Z" style="fill: rgb(38, 50, 56); transform-origin: 132.471px 447.873px;" id="ells8ux2shnzm" class="animable"></path><path d="M133,446.67c0,.16-.44.3-1,.31s-1-.12-1-.28.46-.29,1-.3S133,446.51,133,446.67Z" style="fill: #FFD700; transform-origin: 132px 446.69px;" id="ely83dttzuzs" class="animable"></path><path d="M144.2,450.94c0,.16-6.33.29-14.14.29s-14.15-.13-14.15-.29,6.34-.29,14.15-.29S144.2,450.78,144.2,450.94Z" style="fill: rgb(38, 50, 56); transform-origin: 130.055px 450.94px;" id="eld4vt9oevc1u" class="animable"></path><path d="M133.23,449.25c-.14-.08,0-.57.34-1s.81-.71.91-.6-.12.52-.45,1S133.37,449.33,133.23,449.25Z" style="fill: rgb(38, 50, 56); transform-origin: 133.84px 448.447px;" id="els5793sbapdp" class="animable"></path><path d="M134.31,449.84c-.15-.06-.07-.6.26-1.16s.77-.9.89-.8-.08.57-.39,1.09S134.46,449.9,134.31,449.84Z" style="fill: rgb(38, 50, 56); transform-origin: 134.866px 448.854px;" id="el1dc4ftocmpyh" class="animable"></path><path d="M121,450.88c-.07.05-.33-.19-.7-.59a10.92,10.92,0,0,0-1.49-1.43,4.08,4.08,0,0,0-1.83-.75c-.51-.07-.84,0-.87-.08s.29-.29.88-.33a3.42,3.42,0,0,1,2.16.69,6,6,0,0,1,1.48,1.65C120.94,450.51,121.08,450.83,121,450.88Z" style="fill: rgb(38, 50, 56); transform-origin: 118.565px 449.293px;" id="eln19qn83qyl" class="animable"></path><path d="M133.28,447.55c.08.13-.22.45-.7.62s-.91.11-.93-.05.31-.34.74-.49S133.19,447.41,133.28,447.55Z" style="fill: rgb(38, 50, 56); transform-origin: 132.471px 447.873px;" id="elkqc46p0d0z" class="animable"></path><path d="M133,446.67c0,.16-.44.3-1,.31s-1-.12-1-.28.46-.29,1-.3S133,446.51,133,446.67Z" style="fill: rgb(38, 50, 56); transform-origin: 132px 446.69px;" id="el9hilp100jkc" class="animable"></path><path d="M150.79,444.2l2.67-8.63-16.14-5.12-4,12.59,1,.38c4.37,1.66,22.36,8.12,25.62,8.17C163.52,451.63,150.79,444.2,150.79,444.2Z" style="fill: #FFD700; transform-origin: 146.947px 441.02px;" id="elhsnq7ezfyla" class="animable"></path><path d="M160.51,450.91c0,.16-6.14-1.59-13.6-3.91s-13.47-4.31-13.42-4.46,6.13,1.6,13.6,3.91S160.56,450.76,160.51,450.91Z" style="fill: rgb(38, 50, 56); transform-origin: 147px 446.726px;" id="else6pjs72dzm" class="animable"></path><path d="M150.53,446.05c-.11-.12.15-.54.63-.89s1-.44,1.05-.3-.27.46-.71.78S150.64,446.16,150.53,446.05Z" style="fill: rgb(38, 50, 56); transform-origin: 151.36px 445.439px;" id="el8ddkfvtcfka" class="animable"></path><path d="M151.38,446.94c-.12-.1.11-.6.6-1s1-.63,1.09-.5-.25.52-.7.93S151.51,447,151.38,446.94Z" style="fill: rgb(38, 50, 56); transform-origin: 152.217px 446.177px;" id="elobl6cgj445k" class="animable"></path><path d="M138.38,444c-.08,0-.25-.27-.48-.77a10.7,10.7,0,0,0-1-1.8,4.12,4.12,0,0,0-1.52-1.26c-.47-.21-.81-.25-.81-.33s.36-.2.94-.06a3.43,3.43,0,0,1,1.85,1.3,6.14,6.14,0,0,1,.93,2C138.42,443.62,138.45,444,138.38,444Z" style="fill: rgb(69, 90, 100); transform-origin: 136.493px 441.858px;" id="eldzev1kcovbe" class="animable"></path><path d="M151.08,444.44c0,.15-.34.37-.85.39s-.91-.17-.88-.33.41-.23.86-.25S151,444.28,151.08,444.44Z" style="fill: rgb(38, 50, 56); transform-origin: 150.214px 444.539px;" id="elco5ziai7tup" class="animable"></path><path d="M151.08,443.53c0,.15-.5.15-1.05,0s-.94-.42-.89-.57.53-.14,1.05,0S151.12,443.37,151.08,443.53Z" style="fill: rgb(38, 50, 56); transform-origin: 150.109px 443.247px;" id="elsu5iot5z87a" class="animable"></path><path d="M162.28,268.63l-22.22-1.71h0l-33.66-2.73L110.16,445l29.23-.38s0-2-.07-5.54l17.14,4.69s16.7-56.42,22.39-79.57C183.6,344.91,162.28,268.63,162.28,268.63ZM139,411c-.44-41.74-.95-112.72-.34-121.4,0,0,16.28,62.49,16.43,67.42C155.19,360,146.12,388.84,139,411Z" style="fill: rgb(69, 90, 100); transform-origin: 142.97px 354.595px;" id="el7nci7j43886" class="animable"></path><path d="M139.55,437.77c0,.16-6.54.29-14.6.29s-14.61-.13-14.61-.29,6.54-.29,14.61-.29S139.55,437.61,139.55,437.77Z" style="fill: rgb(69, 90, 100); transform-origin: 124.945px 437.77px;" id="elnl3dtf7oa6q" class="animable"></path><path d="M139.29,431.27a18.11,18.11,0,0,1,2.68.86l6.69,2.33,6.69,2.34a15.21,15.21,0,0,1,2.74,1.08,15.12,15.12,0,0,1-2.87-.69c-1.74-.51-4.13-1.27-6.75-2.18s-5-1.81-6.64-2.5A10.22,10.22,0,0,1,139.29,431.27Z" style="fill: rgb(69, 90, 100); transform-origin: 148.69px 434.575px;" id="eladkzn8ww074" class="animable"></path><path d="M166.07,356.46a27.11,27.11,0,0,1-5.51.7,26.85,26.85,0,0,1-5.55.13,26.53,26.53,0,0,1,5.51-.71A26.42,26.42,0,0,1,166.07,356.46Z" style="fill: rgb(69, 90, 100); transform-origin: 160.54px 356.872px;" id="elu0ce7s2h5k" class="animable"></path><path d="M164.16,359.74a16.51,16.51,0,0,1-4.21-.92,16.35,16.35,0,0,1-4.06-1.47,15.84,15.84,0,0,1,4.22.91C162.39,358.92,164.21,359.58,164.16,359.74Z" style="fill: rgb(69, 90, 100); transform-origin: 160.026px 358.545px;" id="elgghamlvpx4q" class="animable"></path><path d="M141.35,267.15a23.42,23.42,0,0,1,.15,3.44c0,2.13,0,5.07,0,8.32,0,1.61,0,3.15-.06,4.57a8.93,8.93,0,0,1-.7,3.73,4.83,4.83,0,0,1-1.64,2,1.88,1.88,0,0,1-.85.4s.28-.18.73-.56a5.14,5.14,0,0,0,1.43-2,9.27,9.27,0,0,0,.55-3.58c0-1.43,0-3,0-4.58,0-3.25.08-6.19.14-8.31A22.78,22.78,0,0,1,141.35,267.15Z" style="fill: rgb(69, 90, 100); transform-origin: 139.88px 278.38px;" id="el9ys5tlwld9h" class="animable"></path><path d="M124.62,266.13a3,3,0,0,1,0,.44c0,.32,0,.75,0,1.3,0,1.16-.09,2.84-.16,5-.14,4.35-.34,10.6-.59,18.31-.47,15.46-.95,36.83-1.07,60.42s.15,45,.46,60.45c.17,7.71.3,14,.4,18.31,0,2.15.08,3.82.11,5,0,.55,0,1,0,1.3a3,3,0,0,1,0,.44,3,3,0,0,1,0-.44c0-.31,0-.74-.07-1.29,0-1.17-.11-2.84-.2-5-.17-4.32-.37-10.58-.57-18.31-.41-15.47-.73-36.84-.61-60.46s.66-45,1.22-60.43c.28-7.73.54-14,.76-18.31.11-2.14.2-3.81.26-5,0-.55.06-1,.08-1.3A3,3,0,0,1,124.62,266.13Z" style="fill: rgb(69, 90, 100); transform-origin: 123.467px 351.615px;" id="elmd7lqgqsm7" class="animable"></path><path d="M155,270.68a2.77,2.77,0,0,1,.15.41c.09.3.22.7.38,1.22.32,1.07.83,2.65,1.39,4.71,1.15,4.11,2.7,10.08,4.43,17.51S165,310.82,167,320.7s4.11,20.76,6,32.24c.24,1.44.46,2.87.65,4.3,0,.38.07.77.07,1.14l-.18,1.06c-.13.71-.23,1.42-.39,2.11-.57,2.78-1.21,5.5-1.9,8.16-1.36,5.32-2.8,10.41-4.22,15.25-2.82,9.68-5.54,18.34-7.85,25.61s-4.24,13.12-5.6,17.16L152,432.38l-.43,1.21a1.82,1.82,0,0,1-.16.4,2.9,2.9,0,0,1,.11-.42c.1-.3.22-.7.38-1.22l1.49-4.68,5.44-17.21c2.26-7.28,4.94-15.95,7.74-25.63,1.4-4.84,2.83-9.94,4.19-15.25.68-2.65,1.32-5.36,1.89-8.13.16-.69.25-1.39.37-2.09l.18-1.05c0-.34-.05-.67-.07-1-.19-1.41-.4-2.84-.64-4.27-1.9-11.47-4-22.35-6-32.23S162.68,302,161,294.61s-3.19-13.42-4.28-17.54c-.52-2.06-1-3.65-1.29-4.73l-.33-1.23A2,2,0,0,1,155,270.68Z" style="fill: rgb(69, 90, 100); transform-origin: 162.565px 352.335px;" id="elnyneumrtdic" class="animable"></path><path d="M138.91,407.33a6.58,6.58,0,0,1,.09,1.41c0,1,0,2.31.05,3.86,0,3.35.12,7.8.19,12.71s.26,9.36.35,12.71c0,1.55.08,2.85.11,3.86a7.35,7.35,0,0,1,0,1.41,6.54,6.54,0,0,1-.18-1.4c-.08-.91-.17-2.22-.27-3.85-.2-3.25-.39-7.75-.5-12.72s-.09-9.47,0-12.72c0-1.63.07-3,.11-3.86A9,9,0,0,1,138.91,407.33Z" style="fill: rgb(69, 90, 100); transform-origin: 139.204px 425.31px;" id="elyilokj3tew" class="animable"></path><path d="M162.28,268.63l-22.22-1.71h0l-33.66-2.73L110.16,445l29.23-.38s0-2-.07-5.54l17.14,4.69s16.7-56.42,22.39-79.57C183.6,344.91,162.28,268.63,162.28,268.63ZM139,411c-.44-41.74-.95-112.72-.34-121.4,0,0,16.28,62.49,16.43,67.42C155.19,360,146.12,388.84,139,411Z" style="fill: rgb(38, 50, 56); transform-origin: 142.97px 354.595px;" id="elzquvogcqdga" class="animable"></path><path d="M139.55,437.77c0,.16-6.54.29-14.6.29s-14.61-.13-14.61-.29,6.54-.29,14.61-.29S139.55,437.61,139.55,437.77Z" style="fill: rgb(69, 90, 100); transform-origin: 124.945px 437.77px;" id="elfnhabzs4ss5" class="animable"></path><path d="M139.29,431.27a18.11,18.11,0,0,1,2.68.86l6.69,2.33,6.69,2.34a15.21,15.21,0,0,1,2.74,1.08,15.12,15.12,0,0,1-2.87-.69c-1.74-.51-4.13-1.27-6.75-2.18s-5-1.81-6.64-2.5A10.22,10.22,0,0,1,139.29,431.27Z" style="fill: rgb(69, 90, 100); transform-origin: 148.69px 434.575px;" id="elj8qgerqzdnl" class="animable"></path><path d="M166.07,356.46a27.11,27.11,0,0,1-5.51.7,26.85,26.85,0,0,1-5.55.13,26.53,26.53,0,0,1,5.51-.71A26.42,26.42,0,0,1,166.07,356.46Z" style="fill: rgb(69, 90, 100); transform-origin: 160.54px 356.872px;" id="el8ni83vuacv" class="animable"></path><path d="M164.16,359.74a16.51,16.51,0,0,1-4.21-.92,16.35,16.35,0,0,1-4.06-1.47,15.84,15.84,0,0,1,4.22.91C162.39,358.92,164.21,359.58,164.16,359.74Z" style="fill: rgb(69, 90, 100); transform-origin: 160.026px 358.545px;" id="ely4axavsovz" class="animable"></path><path d="M141.35,267.15a23.42,23.42,0,0,1,.15,3.44c0,2.13,0,5.07,0,8.32,0,1.61,0,3.15-.06,4.57a8.93,8.93,0,0,1-.7,3.73,4.83,4.83,0,0,1-1.64,2,1.88,1.88,0,0,1-.85.4s.28-.18.73-.56a5.14,5.14,0,0,0,1.43-2,9.27,9.27,0,0,0,.55-3.58c0-1.43,0-3,0-4.58,0-3.25.08-6.19.14-8.31A22.78,22.78,0,0,1,141.35,267.15Z" style="fill: rgb(69, 90, 100); transform-origin: 139.88px 278.38px;" id="elsh6w5m2g49a" class="animable"></path><path d="M124.62,266.13a3,3,0,0,1,0,.44c0,.32,0,.75,0,1.3,0,1.16-.09,2.84-.16,5-.14,4.35-.34,10.6-.59,18.31-.47,15.46-.95,36.83-1.07,60.42s.15,45,.46,60.45c.17,7.71.3,14,.4,18.31,0,2.15.08,3.82.11,5,0,.55,0,1,0,1.3a3,3,0,0,1,0,.44,3,3,0,0,1,0-.44c0-.31,0-.74-.07-1.29,0-1.17-.11-2.84-.2-5-.17-4.32-.37-10.58-.57-18.31-.41-15.47-.73-36.84-.61-60.46s.66-45,1.22-60.43c.28-7.73.54-14,.76-18.31.11-2.14.2-3.81.26-5,0-.55.06-1,.08-1.3A3,3,0,0,1,124.62,266.13Z" style="fill: rgb(69, 90, 100); transform-origin: 123.467px 351.615px;" id="eln57dn3raim" class="animable"></path><path d="M155,270.68a2.77,2.77,0,0,1,.15.41c.09.3.22.7.38,1.22.32,1.07.83,2.65,1.39,4.71,1.15,4.11,2.7,10.08,4.43,17.51S165,310.82,167,320.7s4.11,20.76,6,32.24c.24,1.44.46,2.87.65,4.3,0,.38.07.77.07,1.14l-.18,1.06c-.13.71-.23,1.42-.39,2.11-.57,2.78-1.21,5.5-1.9,8.16-1.36,5.32-2.8,10.41-4.22,15.25-2.82,9.68-5.54,18.34-7.85,25.61s-4.24,13.12-5.6,17.16L152,432.38l-.43,1.21a1.82,1.82,0,0,1-.16.4,2.9,2.9,0,0,1,.11-.42c.1-.3.22-.7.38-1.22l1.49-4.68,5.44-17.21c2.26-7.28,4.94-15.95,7.74-25.63,1.4-4.84,2.83-9.94,4.19-15.25.68-2.65,1.32-5.36,1.89-8.13.16-.69.25-1.39.37-2.09l.18-1.05c0-.34-.05-.67-.07-1-.19-1.41-.4-2.84-.64-4.27-1.9-11.47-4-22.35-6-32.23S162.68,302,161,294.61s-3.19-13.42-4.28-17.54c-.52-2.06-1-3.65-1.29-4.73l-.33-1.23A2,2,0,0,1,155,270.68Z" style="fill: rgb(69, 90, 100); transform-origin: 162.565px 352.335px;" id="el3yl5ihlkqwd" class="animable"></path><path d="M138.91,407.33a6.58,6.58,0,0,1,.09,1.41c0,1,0,2.31.05,3.86,0,3.35.12,7.8.19,12.71s.26,9.36.35,12.71c0,1.55.08,2.85.11,3.86a7.35,7.35,0,0,1,0,1.41,6.54,6.54,0,0,1-.18-1.4c-.08-.91-.17-2.22-.27-3.85-.2-3.25-.39-7.75-.5-12.72s-.09-9.47,0-12.72c0-1.63.07-3,.11-3.86A9,9,0,0,1,138.91,407.33Z" style="fill: rgb(69, 90, 100); transform-origin: 139.204px 425.31px;" id="eltteq485v6ro" class="animable"></path><path d="M124,181.85l17,1.26c.23-2,.56-9.61.56-9.61s7.09-.65,7.61-7.67.3-23.23.3-23.23h0a24.44,24.44,0,0,0-24.72,1.57l-1.09.74Z" style="fill: rgb(229, 186, 171); transform-origin: 136.588px 161.541px;" id="elm168gwxhm1k" class="animable"></path><path d="M147.05,154.57a1,1,0,1,1,1.45,0A1,1,0,0,1,147.05,154.57Z" style="fill: rgb(38, 50, 56); transform-origin: 147.775px 153.881px;" id="elojk7pfx7v8m" class="animable"></path><path d="M148.85,153.07c-.12.12-.77-.45-1.74-.52s-1.7.39-1.8.26.07-.27.4-.48a2.25,2.25,0,0,1,1.44-.36,2.29,2.29,0,0,1,1.38.57C148.82,152.79,148.91,153,148.85,153.07Z" style="fill: rgb(38, 50, 56); transform-origin: 147.075px 152.524px;" id="elatxo2u3fcil" class="animable"></path><path d="M137.65,153.23a1,1,0,1,1-1.42.25A1,1,0,0,1,137.65,153.23Z" style="fill: rgb(38, 50, 56); transform-origin: 137.06px 154.038px;" id="elciegwtmye0w" class="animable"></path><path d="M138.29,153.28c-.12.11-.77-.46-1.74-.53s-1.7.4-1.8.27.07-.28.39-.49a2.43,2.43,0,0,1,1.45-.36,2.38,2.38,0,0,1,1.38.57C138.26,153,138.35,153.23,138.29,153.28Z" style="fill: rgb(38, 50, 56); transform-origin: 136.515px 152.729px;" id="elw2rg4yx4t" class="animable"></path><path d="M141.68,161.5a5.16,5.16,0,0,1,1.58-.23c.26,0,.47-.05.5-.19a1.37,1.37,0,0,0-.14-.75l-.64-2a28.71,28.71,0,0,1-1.35-5.27,29.07,29.07,0,0,1,1.85,5.11l.6,2a1.6,1.6,0,0,1,.08,1.05.65.65,0,0,1-.46.37,1.67,1.67,0,0,1-.43,0A5,5,0,0,1,141.68,161.5Z" style="fill: rgb(38, 50, 56); transform-origin: 142.922px 157.338px;" id="eln2k3gx3xwz" class="animable"></path><path d="M138.47,162.37c-1-.66,2.68,1.65,4.66,1.68a2.67,2.67,0,0,1-3.22.86C137.85,164,138.47,162.37,138.47,162.37Z" style="fill: rgb(255, 255, 255); transform-origin: 140.715px 163.693px;" id="elx3g7wskk0xh" class="animable"></path><path d="M141.52,173.4a16.38,16.38,0,0,1-9-3.16s1.85,5.19,8.9,5Z" style="fill: rgb(215, 135, 118); transform-origin: 137.02px 172.743px;" id="elqx4kl67duc" class="animable"></path><path d="M125,151.14c-.16-.06-5.22-.72-4.74,5.26s6.36,3.51,6.35,3.34S125,151.14,125,151.14Z" style="fill: rgb(229, 186, 171); transform-origin: 123.419px 155.739px;" id="elxian0sn6lk" class="animable"></path><path d="M124.56,157.79s-.09.08-.26.18a1.08,1.08,0,0,1-.78.08,2.61,2.61,0,0,1-1.38-2.22,3.39,3.39,0,0,1,.18-1.51,1.22,1.22,0,0,1,.71-.87.55.55,0,0,1,.64.24c.09.16.07.28.1.29s.12-.11,0-.35a.65.65,0,0,0-.26-.36.83.83,0,0,0-.59-.1,1.45,1.45,0,0,0-1,1,3.48,3.48,0,0,0-.23,1.69,2.7,2.7,0,0,0,1.72,2.46,1.12,1.12,0,0,0,.94-.23C124.56,157.94,124.59,157.8,124.56,157.79Z" style="fill: rgb(215, 135, 118); transform-origin: 123.119px 155.749px;" id="el4ezkgi6456p" class="animable"></path><path d="M149.92,140.07a2.64,2.64,0,1,0-1.45-4.89,7.77,7.77,0,0,0,2-2.53,2.66,2.66,0,0,0-.5-3,3,3,0,0,0-3-.18c-1.49.64-2.67,1.9-4.2,2.43s-3.24.27-4.88.34A8.69,8.69,0,0,0,132.8,134a6,6,0,0,0-2.25,4,6.41,6.41,0,0,0-.65-.76,5.79,5.79,0,0,0-3-1.89c-.07.13,1.3.89,2.61,2.25a11.37,11.37,0,0,1,1,1.09c-2.28-.28-4.79-.3-6.59,1.12a6.62,6.62,0,0,0-2.21,5.2c0,1.94.8,3.79,1.37,5.65h0a4.26,4.26,0,0,0,.7,1.46l.86,5,3.13-.06-.2-10.49s-.32-4.42,3.48-4,9,4.67,16.38,3.59a8,8,0,0,0,3.45-1,3.41,3.41,0,0,0,1.58-3.07A2.31,2.31,0,0,0,149.92,140.07Z" style="fill: rgb(38, 50, 56); transform-origin: 137.097px 143.136px;" id="el3sa2l6cirwe" class="animable"></path><path d="M213.52,191.84l.46-3.18a27,27,0,0,0,.88-5.32,7.71,7.71,0,0,0-.24-2.66,11.69,11.69,0,0,0-1.16-3.12c-.58-.85.18-2,1-1.65s2.53,2.61,3.08,5.87,3.12-1.26,4.08-2.89,4.19-6.54,4.93-6.64c1.08-.15,1.44,1,.43,2.59s-3.67,6.64-2.78,7.1a4.84,4.84,0,0,1,2,.1.53.53,0,0,1,.38.48,6.65,6.65,0,0,0,.16,1.5s1.31-.3,1.58.27a5.56,5.56,0,0,1,.25,1.81s1-.34,1.48,0c1,.81-.28,2.2-.28,2.2a109.09,109.09,0,0,1-9.47,9.95l-6.89-6.64" style="fill: rgb(229, 186, 171); transform-origin: 221.844px 185.243px;" id="elmq38ycah6kq" class="animable"></path><path d="M226.34,184.24a6.13,6.13,0,0,1-1.17,1.67c-.4.48-.9,1-1.49,1.63a8.06,8.06,0,0,1-1,.9,1.47,1.47,0,0,1-1.58.16,1,1,0,0,1-.49-.77,1.45,1.45,0,0,1,.18-.81,11.91,11.91,0,0,1,.8-1.07c.51-.64.93-1.24,1.28-1.76a12.06,12.06,0,0,1,1.15-1.67,5.74,5.74,0,0,1-.84,1.86,18.88,18.88,0,0,1-1.2,1.86,10.9,10.9,0,0,0-.74,1c-.18.33-.17.74.12.89a1,1,0,0,0,1-.13,9,9,0,0,0,.94-.82c.6-.56,1.12-1.09,1.55-1.54A10.07,10.07,0,0,1,226.34,184.24Z" style="fill: rgb(215, 135, 118); transform-origin: 223.473px 185.64px;" id="ele49xqhkwabv" class="animable"></path><path d="M228.09,186.29a5.68,5.68,0,0,1-1.12,1.43,11.74,11.74,0,0,1-1.47,1.33,7.59,7.59,0,0,1-1,.64,2.22,2.22,0,0,1-.66.21,1,1,0,0,1-.79-.21,1.21,1.21,0,0,1-.17-1.46,6.1,6.1,0,0,1,.71-1c.44-.51.85-1,1.26-1.49.73-.84,1.21-1.33,1.27-1.29a6.82,6.82,0,0,1-1,1.52L224,187.56a7.13,7.13,0,0,0-.64.9.72.72,0,0,0,.06.83c.18.17.56.1.89-.06a8.84,8.84,0,0,0,.95-.57,16.43,16.43,0,0,0,1.49-1.2A7.32,7.32,0,0,1,228.09,186.29Z" style="fill: rgb(215, 135, 118); transform-origin: 225.4px 187.18px;" id="eluyntr3xw3c" class="animable"></path><path d="M228.5,189.15c.05,0,0,.45-.47,1a1.66,1.66,0,0,1-1.15.59,1.26,1.26,0,0,1-.79-.27,1.09,1.09,0,0,1-.39-.85,3.07,3.07,0,0,1,.6-1.4,9.89,9.89,0,0,1,.69-.95c.43-.52.74-.79.8-.74s-.16.39-.5,1c-.2.35-.4.67-.58,1a3.15,3.15,0,0,0-.49,1.17.66.66,0,0,0,.66.63,1.36,1.36,0,0,0,.89-.37C228.22,189.48,228.43,189.11,228.5,189.15Z" style="fill: rgb(215, 135, 118); transform-origin: 227.108px 188.632px;" id="el6kunj31p2re" class="animable"></path><path d="M212.77,187.71s-26.23,25.81-29.91,26c-4.2.2-17.12-18.12-17.12-18.12h0c-8.27-12.76-19.18-14.82-23.16-15.14l0-1.58-19.55-1.6s0,1.68,0,3.15H114.4s-15.5-.71-17.82,20.11l11.14,8.81,4.57,17c1.59,5.92-4.09,15.35-6.8,30.62a11.84,11.84,0,0,0,1.21,7.44l56.45,6.49-3-43.16-.91-10c4.65,6.35,13,15.33,23.23,15.13,17.45-.33,41.69-37,41.69-37Z" style="fill: rgb(224, 224, 224); transform-origin: 160.37px 224.08px;" id="el215jbti0hts" class="animable"></path><path d="M136,178.59a12.29,12.29,0,0,1,0,2.67,47.84,47.84,0,0,1-.9,6.61l-.07.33-.3-.16c-.68-.36-1.39-.74-2.11-1.16-2.8-1.65-5.19-3.35-7-4.53a29.42,29.42,0,0,1-2.82-1.95,3.43,3.43,0,0,1,.85.38c.52.29,1.27.71,2.17,1.26,1.82,1.1,4.24,2.76,7,4.39.7.41,1.4.8,2.08,1.16l-.37.17c.58-2.58.86-4.89,1.07-6.53A22,22,0,0,1,136,178.59Z" style="fill: rgb(250, 250, 250); transform-origin: 129.436px 183.395px;" id="el3kcdukpjqf4" class="animable"></path><path d="M142.64,180.56a18.13,18.13,0,0,1-.56,2.54c-.19.79-.39,1.73-.73,2.75a13.67,13.67,0,0,1-.63,1.58.94.94,0,0,1-.36.45.59.59,0,0,1-.73-.09,3.91,3.91,0,0,1-.45-.89c-1-2.27-1.79-4.33-2.37-5.84a12.1,12.1,0,0,1-.83-2.47,13,13,0,0,1,1.17,2.33c.67,1.47,1.56,3.51,2.51,5.78a4.7,4.7,0,0,0,.34.73c.05,0,0,0,.09,0a.57.57,0,0,0,.17-.23,15.83,15.83,0,0,0,.64-1.51c.35-1,.59-1.92.82-2.69A10,10,0,0,1,142.64,180.56Z" style="fill: rgb(250, 250, 250); transform-origin: 139.31px 183.279px;" id="elsj1m8fgkvii" class="animable"></path><path d="M139,250.4a4,4,0,0,1-.08-.71q0-.78-.12-2c-.08-1.84-.2-4.39-.34-7.52-.24-6.4-.58-15.15-.94-24.81s-.59-18.41-.79-24.81c-.07-3.14-.13-5.69-.18-7.53,0-.84,0-1.52,0-2a3.35,3.35,0,0,1,0-.72,3.71,3.71,0,0,1,.07.71c0,.52.08,1.2.13,2,.08,1.83.2,4.38.34,7.51.24,6.4.57,15.15.94,24.81s.58,18.41.79,24.82c.07,3.13.13,5.68.18,7.52,0,.85,0,1.53,0,2.05A3.28,3.28,0,0,1,139,250.4Z" style="fill: rgb(245, 245, 245); transform-origin: 137.774px 215.35px;" id="elgkrh1a6bpim" class="animable"></path><polygon points="135.44 184.91 137.08 189.43 138.49 184.58 136.3 179.72 135.44 184.91" style="fill: #FFD700; transform-origin: 136.965px 184.575px;" id="el8hfhyj1iklx" class="animable"></polygon><polygon points="137.38 188.08 136.3 238.96 143.98 255.02 147.01 236.95 137.38 188.08" style="fill: #FFD700; transform-origin: 141.655px 221.55px;" id="elscj6fwkw47" class="animable"></polygon><path d="M183.14,220s0,.15,0,.4l-.06.38-.17-.38a10.16,10.16,0,0,1-.66-3.16,7.17,7.17,0,0,1,.42-3.57c.15,0,0,1.6.1,3.54.08,1.38.3,2.56.37,3.13h-.23C183,220.07,183.1,220,183.14,220Z" style="fill: rgb(250, 250, 250); transform-origin: 182.662px 217.225px;" id="elxb3tl4y7ars" class="animable"></path><path d="M185.39,219.83a7,7,0,0,1-1.62-2.76A7.2,7.2,0,0,1,183,214a16,16,0,0,1,1.24,2.92A16.1,16.1,0,0,1,185.39,219.83Z" style="fill: rgb(250, 250, 250); transform-origin: 184.195px 216.915px;" id="el9hffcsvzaxd" class="animable"></path><path d="M222.52,198.29a51.57,51.57,0,0,1-6.22-3.88,51.42,51.42,0,0,1-5.92-4.31A52.48,52.48,0,0,1,216.6,194,51.42,51.42,0,0,1,222.52,198.29Z" style="fill: rgb(250, 250, 250); transform-origin: 216.45px 194.195px;" id="eluqkv7kr0ack" class="animable"></path><path d="M113.49,206.46s-4.16,29-2.19,30.62c10.88,9.15,26,13.95,31.4,15.46.79-.19,1.71-.44,2.77-.78a8.48,8.48,0,0,0,2.55-1.32,13,13,0,0,0,2.62-2.44,1.11,1.11,0,0,1,2.06.38c.05,1-1.55,3.57-4.56,5.45,0,0,6.93,11.15,9.14,12.16s8.53,3.85,7.46,4.39-8.76-1.69-8.76-1.69l-15.6-4.17s-51.6-8.09-48.17-31.76c2.11-14.51,4.41-27.58,5.24-30.89Z" style="fill: rgb(229, 186, 171); transform-origin: 128.454px 236.167px;" id="elf7llu1v1vti" class="animable"></path><path d="M96.58,200.52,92,232.13c-1.07,9.73,5.45,17.46,14.22,21.81,13.35,6.61,33.17,11.33,33,11.3s1.34-14.11,1.34-14.11-27.79-12-28.66-17.2,3.53-26.8,3.53-26.8Z" style="fill: rgb(224, 224, 224); transform-origin: 116.222px 232.88px;" id="elj0mrsa1brz" class="animable"></path><path d="M139.18,265.24a1,1,0,0,1,0-.25c0-.2,0-.44.05-.73.05-.69.12-1.62.22-2.81.21-2.48.52-6,.89-10.33l.11.18-14-6.77-4-2c-1.35-.72-2.71-1.51-4.06-2.38a40.93,40.93,0,0,1-3.94-2.89c-.63-.53-1.26-1.09-1.86-1.68a3.23,3.23,0,0,1-.8-1.07,2.38,2.38,0,0,1-.23-.63,3.67,3.67,0,0,1-.14-.64c-.45-3.46.47-6.72,1-9.83s1.06-6.14,1.56-9c1-5.74,1.91-10.9,2.67-15.26a32.65,32.65,0,0,0,.7-5.87,10.14,10.14,0,0,0-.9-4.31,7.14,7.14,0,0,0-1.64-2.26c-.48-.43-.77-.6-.76-.63a4.2,4.2,0,0,1,.83.55,6.87,6.87,0,0,1,1.75,2.25,10.24,10.24,0,0,1,1,4.4,31.55,31.55,0,0,1-.63,5.93c-.73,4.37-1.6,9.54-2.56,15.29-.49,2.87-1,5.89-1.53,9-.13.78-.27,1.57-.41,2.37s-.29,1.58-.4,2.38a18.22,18.22,0,0,0-.13,4.89,5.11,5.11,0,0,0,.13.59,2,2,0,0,0,.2.55,2.72,2.72,0,0,0,.7.92c.59.58,1.2,1.13,1.82,1.65a40,40,0,0,0,3.89,2.86c1.33.87,2.67,1.65,4,2.37l4,2L140.6,251l.11.06v.12c-.45,4.33-.81,7.84-1.06,10.32-.14,1.18-.24,2.12-.32,2.8q-.06.44-.09.72A1.18,1.18,0,0,1,139.18,265.24Z" style="fill: rgb(250, 250, 250); transform-origin: 126.005px 225.66px;" id="elt6gd3vl04r" class="animable"></path><path d="M136.6,249.2a9.09,9.09,0,0,1-.17,2.16c-.17,1.32-.45,3.14-.82,5.14s-.79,3.8-1.13,5.09a8.09,8.09,0,0,1-.69,2.05,10.35,10.35,0,0,1,.33-2.14q.44-2.26,1-5.1A61.75,61.75,0,0,1,136.6,249.2Z" style="fill: rgb(250, 250, 250); transform-origin: 135.199px 256.42px;" id="els08ivozkktb" class="animable"></path><path d="M139.18,265.24a1.59,1.59,0,0,1-.49-.08l-1.37-.33-5-1.32c-4.23-1.14-10.11-2.64-16.41-4.95a69,69,0,0,1-8.64-3.85,46.84,46.84,0,0,1-6.5-4.18,36.08,36.08,0,0,1-3.9-3.46c-.43-.44-.74-.79-1-1a1.71,1.71,0,0,1-.3-.4s.5.47,1.4,1.3a44.55,44.55,0,0,0,4,3.31,53.11,53.11,0,0,0,6.5,4,72.2,72.2,0,0,0,8.6,3.78c6.26,2.3,12.13,3.85,16.33,5.09l5,1.47,1.35.43A1.83,1.83,0,0,1,139.18,265.24Z" style="fill: rgb(250, 250, 250); transform-origin: 117.375px 255.455px;" id="el751zl9joxel" class="animable"></path><path d="M139.52,252.58a.9.9,0,1,1-.91-.87A.9.9,0,0,1,139.52,252.58Z" style="fill: rgb(250, 250, 250); transform-origin: 138.62px 252.61px;" id="elucmsrcs8me" class="animable"></path></g><defs>     <filter id="active" height="200%">         <feMorphology in="SourceAlpha" result="DILATED" operator="dilate" radius="2"></feMorphology>                <feFlood flood-color="#32DFEC" flood-opacity="1" result="PINK"></feFlood>        <feComposite in="PINK" in2="DILATED" operator="in" result="OUTLINE"></feComposite>        <feMerge>            <feMergeNode in="OUTLINE"></feMergeNode>            <feMergeNode in="SourceGraphic"></feMergeNode>        </feMerge>    </filter>    <filter id="hover" height="200%">        <feMorphology in="SourceAlpha" result="DILATED" operator="dilate" radius="2"></feMorphology>                <feFlood flood-color="#ff0000" flood-opacity="0.5" result="PINK"></feFlood>        <feComposite in="PINK" in2="DILATED" operator="in" result="OUTLINE"></feComposite>        <feMerge>            <feMergeNode in="OUTLINE"></feMergeNode>            <feMergeNode in="SourceGraphic"></feMergeNode>        </feMerge>            <feColorMatrix type="matrix" values="0   0   0   0   0                0   1   0   0   0                0   0   0   0   0                0   0   0   1   0 "></feColorMatrix>    </filter></defs></svg>